<?xml version="1.0" standalone="no"?>
<svg viewBox="0 0 200 200" xmlns="http://www.w3.org/2000/svg">
  <path fill="#E8DAFF" d="M43,-67.4C56.7,-58.1,69.3,-47.8,74.7,-34.5C80,-21.3,78,-5.2,75.4,10.6C72.7,26.4,69.4,41.8,59.7,50.1C50,58.4,33.9,59.6,18.6,64.6C3.4,69.6,-11.1,78.4,-24.3,77.1C-37.6,75.9,-49.5,64.6,-60.5,52.3C-71.5,39.9,-81.5,26.5,-85,11.4C-88.4,-3.7,-85.2,-20.6,-75.9,-32.1C-66.7,-43.6,-51.3,-49.8,-37.6,-59.1C-24,-68.4,-12,-80.8,1.3,-82.9C14.7,-85,29.3,-76.7,43,-67.4Z" transform="translate(100 100)" />
</svg>
